<?xml version="1.0" standalone="no"?>
<!DOCTYPE svg PUBLIC "-//W3C//DTD SVG 20010904//EN"
 "http://www.w3.org/TR/2001/REC-SVG-20010904/DTD/svg10.dtd">
<svg version="1.0" xmlns="http://www.w3.org/2000/svg"
 width="640.000000pt" height="768.000000pt" viewBox="0 0 640.000000 768.000000"
 preserveAspectRatio="xMidYMid meet">

<g transform="translate(0.000000,768.000000) scale(0.100000,-0.100000)"
fill="#000000" stroke="none">
<path d="M3149 7350 c-387 -60 -640 -258 -747 -583 -73 -220 -90 -413 -71
-782 23 -424 17 -539 -38 -749 -48 -187 -134 -361 -255 -518 -342 -448 -441
-594 -579 -863 -121 -234 -195 -429 -240 -637 -22 -104 -36 -333 -25 -422 8
-57 8 -57 29 -42 137 99 280 99 429 0 124 -83 229 -231 382 -538 91 -182 189
-332 283 -433 28 -30 31 -30 82 -22 141 22 201 109 166 243 -49 187 -225 377
-550 593 -203 135 -266 199 -335 335 -57 114 -74 202 -67 362 7 195 58 368
181 617 78 157 200 364 204 345 2 -9 -42 -107 -97 -218 -156 -311 -208 -500
-198 -713 7 -134 24 -204 78 -312 55 -109 69 -121 69 -57 0 68 25 240 50 358
37 170 97 330 240 646 266 585 353 836 395 1128 l17 113 -52 54 c-62 66 -89
124 -90 188 0 69 30 119 103 173 34 25 64 48 66 50 2 2 -13 28 -33 57 -115
167 -106 445 17 576 152 160 373 -19 380 -307 l2 -67 122 0 123 0 0 70 c0 127
41 241 118 326 94 104 218 132 335 75 176 -86 261 -347 186 -573 -11 -34 -31
-78 -45 -98 -13 -20 -24 -39 -24 -43 1 -4 21 -20 45 -35 53 -34 92 -96 101
-158 5 -35 0 -59 -20 -111 l-27 -66 25 -89 c98 -345 277 -794 477 -1195 151
-302 226 -497 278 -729 l22 -96 58 -6 c32 -4 64 -9 72 -12 11 -4 20 8 32 47
100 321 -22 741 -307 1056 -95 105 -86 142 10 40 201 -213 358 -504 407 -753
24 -118 30 -230 18 -320 -5 -44 -13 -87 -16 -96 -4 -11 15 -26 77 -56 174 -87
282 -174 320 -260 16 -37 19 -59 15 -108 l-6 -62 52 -8 c99 -13 89 -22 121
100 28 104 29 122 30 315 1 161 -3 223 -17 290 -88 420 -276 772 -678 1276
-295 369 -382 513 -441 732 -19 69 -22 118 -28 477 -9 435 -20 565 -70 760
-83 331 -234 539 -475 656 -134 64 -221 81 -440 85 -104 1 -215 -1 -246 -6z
m346 -90 c114 -29 218 -85 296 -157 62 -58 129 -160 129 -195 0 -19 -318 -28
-967 -28 l-454 0 12 23 c69 133 255 272 454 337 160 53 371 61 530 20z m1274
-2605 c53 -71 118 -160 144 -197 l48 -68 -63 0 -63 0 -102 188 c-187 346 -178
365 36 77z m-2698 -73 c-35 -69 -116 -205 -203 -339 l-60 -93 -59 0 c-32 0
-59 3 -59 6 0 3 28 47 61 97 134 201 339 440 347 405 2 -9 -11 -43 -27 -76z"/>
<path d="M3426 6140 c-48 -43 -77 -110 -83 -196 l-6 -73 64 -40 c75 -48 163
-85 182 -78 20 8 47 69 59 137 20 104 -24 230 -92 265 -46 24 -85 19 -124 -15z
m94 -35 c13 -14 21 -27 18 -30 -3 -3 -37 -5 -74 -3 l-69 3 27 28 c34 34 67 35
98 2z"/>
<path d="M2645 6098 c-39 -30 -55 -76 -55 -156 0 -80 21 -150 55 -182 l23 -22
72 59 72 58 -5 66 c-5 82 -38 154 -81 180 -39 24 -47 24 -81 -3z m78 -30 l22
-23 -49 -3 c-56 -4 -61 -1 -46 27 14 27 44 27 73 -1z"/>
<path d="M4637 3086 c-141 -39 -201 -229 -140 -446 56 -199 183 -296 354 -270
93 14 250 95 335 173 78 72 103 120 104 198 0 47 -5 63 -30 97 -56 78 -205
168 -366 221 -110 36 -193 45 -257 27z m207 -104 c39 -16 91 -41 116 -58 l45
-29 -224 -3 c-123 -1 -226 -1 -228 2 -2 2 3 22 12 44 16 40 42 65 80 75 38 11
127 -4 199 -31z"/>
<path d="M3970 1539 c-159 -104 -342 -179 -540 -219 -91 -19 -127 -21 -275
-17 -143 4 -185 9 -265 31 -103 29 -252 96 -324 145 l-45 31 44 -82 c54 -103
75 -174 75 -253 0 -54 -16 -136 -36 -189 -7 -18 -3 -19 72 -13 43 4 126 16
184 27 292 56 435 61 715 25 105 -14 238 -25 296 -25 l105 0 -7 63 c-12 102
18 295 74 480 8 26 12 47 9 46 -4 0 -41 -23 -82 -50z"/>
</g>
</svg>
